<?xml version="1.0" encoding="utf-8"?>
<!-- Generator: Adobe Illustrator 16.0.0, SVG Export Plug-In . SVG Version: 6.00 Build 0)  -->
<!DOCTYPE svg PUBLIC "-//W3C//DTD SVG 1.1//EN" "http://www.w3.org/Graphics/SVG/1.1/DTD/svg11.dtd">
<svg version="1.1" id="Layer_1" xmlns="http://www.w3.org/2000/svg" xmlns:xlink="http://www.w3.org/1999/xlink" x="0px" y="0px"
	 width="100px" height="100px" viewBox="0 0 100 100" enable-background="new 0 0 100 100" xml:space="preserve">
<g>
	<path fill="#FFFFFF" d="M74.395,52.805c-0.113-11.32,9.231-16.75,9.648-17.023c-5.251-7.679-13.432-8.732-16.344-8.852
		c-6.955-0.708-13.58,4.098-17.11,4.098c-3.521,0-8.974-3.995-14.742-3.894c-7.59,0.113-14.584,4.415-18.49,11.208
		c-7.881,13.671-2.015,33.933,5.664,45.029c3.755,5.423,8.232,11.526,14.105,11.303c5.662-0.224,7.797-3.661,14.643-3.661
		c6.843,0,8.766,3.661,14.754,3.546c6.088-0.109,9.948-5.527,13.673-10.973c4.309-6.301,6.084-12.4,6.188-12.711
		C86.253,70.815,74.518,66.319,74.395,52.805z"/>
	<path fill="#FFFFFF" d="M63.142,19.587c3.115-3.782,5.226-9.038,4.653-14.269c-4.497,0.183-9.938,2.989-13.165,6.767
		c-2.892,3.353-5.421,8.69-4.744,13.827C54.901,26.301,60.017,23.361,63.142,19.587z"/>
</g>
</svg>
